<svg width="26" height="31" viewBox="0 0 26 31" fill="none" xmlns="http://www.w3.org/2000/svg">
<path d="M21.6149 16.4245C21.6454 14.0524 22.9194 11.8078 24.9403 10.5654C23.6654 8.74452 21.5299 7.59006 19.3082 7.52055C16.9385 7.27182 14.6413 8.93852 13.4337 8.93852C12.2028 8.93852 10.3436 7.54524 8.34159 7.58644C5.73202 7.67075 3.29924 9.15441 2.02963 11.4359C-0.699532 16.161 1.33618 23.1053 3.95049 26.9248C5.25848 28.795 6.78715 30.8842 8.78739 30.8101C10.7447 30.7289 11.4758 29.5619 13.8385 29.5619C16.1792 29.5619 16.8651 30.8101 18.9059 30.763C21.0062 30.7289 22.3295 28.8844 23.5916 26.9964C24.5314 25.6638 25.2546 24.1909 25.7344 22.6324C23.2661 21.5885 21.6178 19.1045 21.6149 16.4245Z" fill="white"/>
<path d="M17.7601 5.0087C18.9053 3.63395 19.4695 1.86694 19.3328 0.0829163C17.5832 0.266677 15.9671 1.10287 14.8065 2.42487C13.6715 3.71654 13.0808 5.45247 13.1925 7.1683C14.9427 7.18632 16.6633 6.3728 17.7601 5.0087Z" fill="white"/>
</svg>
