<svg width="80" height="80" viewBox="0 0 80 80" fill="none" xmlns="http://www.w3.org/2000/svg">
<circle cx="40" cy="40" r="40" fill="#007AFF"/>
<path d="M40.0592 30.925C38.2248 30.925 36.4315 31.469 34.9063 32.4882C33.381 33.5073 32.1922 34.9559 31.4902 36.6507C30.7882 38.3454 30.6045 40.2103 30.9624 42.0095C31.3203 43.8087 32.2036 45.4613 33.5008 46.7585C34.7979 48.0556 36.4505 48.939 38.2497 49.2968C40.0489 49.6547 41.9138 49.471 43.6086 48.769C45.3034 48.067 46.7519 46.8782 47.7711 45.353C48.7902 43.8277 49.3342 42.0345 49.3342 40.2C49.3314 37.741 48.3534 35.3835 46.6146 33.6447C44.8758 31.9059 42.5182 30.9278 40.0592 30.925ZM41.4722 44.8838V48.0169C40.5377 48.1946 39.5781 48.1944 38.6436 48.0165V44.8838C38.6436 44.76 38.609 44.6387 38.5436 44.5336C38.4782 44.4285 38.3846 44.3439 38.2735 44.2892C37.6447 43.9832 37.1051 43.5207 36.7067 42.946C36.3082 42.3712 36.0642 41.7037 35.9982 41.0075C35.9322 40.3113 36.0464 39.6098 36.3297 38.9704C36.6131 38.3311 37.0561 37.7753 37.6162 37.3566V40.8625C37.6162 40.9496 37.6333 41.0357 37.6666 41.1161C37.6999 41.1965 37.7487 41.2695 37.8102 41.3311C37.8717 41.3926 37.9448 41.4414 38.0252 41.4747C38.1055 41.508 38.1917 41.5251 38.2787 41.525H41.8364C41.9234 41.5251 42.0096 41.508 42.09 41.4747C42.1704 41.4414 42.2434 41.3926 42.3049 41.3311C42.3665 41.2695 42.4153 41.1965 42.4485 41.1161C42.4818 41.0357 42.4989 40.9496 42.4989 40.8625V37.3492C43.061 37.7674 43.5059 38.3234 43.7906 38.9636C44.0752 39.6038 44.1901 40.3065 44.1241 41.004C44.0581 41.7016 43.8135 42.3703 43.4138 42.9457C43.0141 43.5212 42.4728 43.9839 41.8422 44.2892C41.7312 44.3439 41.6376 44.4285 41.5722 44.5336C41.5068 44.6387 41.4722 44.76 41.4722 44.8838ZM42.7972 47.654V45.2788C43.6681 44.7685 44.3786 44.0243 44.8479 43.1307C45.3173 42.237 45.5268 41.2297 45.4526 40.223C45.3785 39.2163 45.0236 38.2506 44.4283 37.4354C43.833 36.6202 43.0212 35.9882 42.0849 35.6111C41.9843 35.5704 41.8753 35.555 41.7674 35.5663C41.6596 35.5776 41.5561 35.6153 41.4662 35.6759C41.3762 35.7365 41.3025 35.8183 41.2516 35.914C41.2006 36.0098 41.174 36.1166 41.1739 36.225V40.2H38.9412V36.2315C38.9412 36.1231 38.9145 36.0163 38.8636 35.9205C38.8126 35.8248 38.7389 35.743 38.649 35.6824C38.559 35.6217 38.4556 35.5841 38.3477 35.5728C38.2398 35.5615 38.1308 35.5769 38.0303 35.6175C37.0957 35.9955 36.2856 36.6276 35.6916 37.4422C35.0977 38.2568 34.7437 39.2214 34.6696 40.2268C34.5955 41.2322 34.8044 42.2383 35.2726 43.1311C35.7407 44.024 36.4495 44.7679 37.3186 45.2788V47.653C35.5658 47.0094 34.0955 45.7693 33.1655 44.1502C32.2354 42.5311 31.905 40.6362 32.232 38.7979C32.559 36.9595 33.5227 35.2949 34.9541 34.0959C36.3855 32.8969 38.1933 32.2399 40.0605 32.2403C41.9277 32.2406 43.7353 32.8981 45.1662 34.0976C46.5972 35.2971 47.5604 36.9621 47.8868 38.8005C48.2132 40.639 47.8821 42.5337 46.9515 44.1525C46.0209 45.7713 44.5502 47.0109 42.7972 47.654V47.654Z" fill="white"/>
<path d="M51.6243 43.8726C51.6576 43.7444 51.7313 43.6305 51.8346 43.5477C51.9379 43.465 52.0652 43.4178 52.1975 43.4132H53.058C53.2117 43.4132 53.3606 43.3598 53.4792 43.262C53.5978 43.1643 53.6788 43.0284 53.7082 42.8775C54.0593 41.1098 54.0593 39.2903 53.7082 37.5225C53.6788 37.3717 53.5978 37.2357 53.4792 37.138C53.3606 37.0403 53.2117 36.9868 53.058 36.9868H52.1975C52.0653 36.9823 51.938 36.9351 51.8347 36.8524C51.7314 36.7697 51.6576 36.6559 51.6243 36.5278C51.415 35.871 51.1501 35.2332 50.8324 34.6215C50.7651 34.5072 50.7365 34.3742 50.7511 34.2423C50.7657 34.1105 50.8226 33.9869 50.9133 33.8901L51.5253 33.2784C51.6339 33.1696 51.7014 33.0265 51.7162 32.8735C51.7309 32.7205 51.692 32.5671 51.6062 32.4396C50.6012 30.9438 49.3151 29.6576 47.8195 28.6525C47.6919 28.5669 47.5386 28.5282 47.3857 28.543C47.2328 28.5578 47.0897 28.6252 46.981 28.7337L46.3689 29.3458C46.272 29.4363 46.1484 29.4932 46.0165 29.5077C45.8846 29.5223 45.7516 29.4939 45.6372 29.4266C45.0256 29.1089 44.3879 28.8439 43.7312 28.6347C43.6032 28.6014 43.4893 28.5276 43.4066 28.4243C43.324 28.321 43.2769 28.1938 43.2725 28.0615V27.2011C43.2725 27.0473 43.2191 26.8984 43.1214 26.7798C43.0236 26.6611 42.8877 26.5802 42.7368 26.5508C40.9687 26.2015 39.1493 26.2015 37.3811 26.5508C37.2303 26.5802 37.0943 26.6611 36.9966 26.7798C36.8988 26.8984 36.8454 27.0473 36.8454 27.2011V28.0615C36.841 28.1938 36.794 28.321 36.7113 28.4243C36.6286 28.5276 36.5148 28.6014 36.3867 28.6347C35.73 28.8439 35.0924 29.1089 34.4807 29.4266C34.3663 29.4938 34.2333 29.5222 34.1014 29.5077C33.9696 29.4931 33.846 29.4363 33.749 29.3458L33.137 28.7337C33.0282 28.6252 32.8852 28.5578 32.7323 28.543C32.5794 28.5282 32.426 28.5669 32.2985 28.6525C30.8028 29.6576 29.5167 30.9438 28.5118 32.4396C28.4259 32.5671 28.387 32.7205 28.4018 32.8735C28.4165 33.0265 28.484 33.1696 28.5926 33.2784L29.2047 33.8898C29.2953 33.9867 29.3522 34.1104 29.3668 34.2424C29.3814 34.3743 29.3529 34.5074 29.2855 34.6218C28.9679 35.2334 28.703 35.8709 28.4936 36.5275C28.4604 36.6556 28.3866 36.7696 28.2833 36.8523C28.18 36.9351 28.0527 36.9823 27.9204 36.9868H27.06C26.9063 36.9869 26.7574 37.0403 26.6388 37.138C26.5202 37.2358 26.4392 37.3717 26.4098 37.5225C26.0587 39.2903 26.0587 41.1098 26.4098 42.8775C26.4392 43.0284 26.5202 43.1643 26.6388 43.262C26.7574 43.3598 26.9063 43.4132 27.06 43.4132H27.9205C28.0527 43.4178 28.18 43.4649 28.2833 43.5476C28.3865 43.6303 28.4604 43.7442 28.4937 43.8723C28.7029 44.5289 28.9678 45.1664 29.2856 45.7779C29.3529 45.8923 29.3815 46.0254 29.3669 46.1574C29.3523 46.2893 29.2954 46.413 29.2047 46.51L28.5927 47.1217C28.484 47.2304 28.4166 47.3736 28.4018 47.5266C28.3871 47.6796 28.426 47.833 28.5118 47.9605C29.5168 49.4563 30.8029 50.7425 32.2985 51.7475C32.426 51.8335 32.5794 51.8724 32.7324 51.8576C32.8854 51.8427 33.0284 51.7751 33.137 51.6663L33.7491 51.0543C33.8461 50.9639 33.9697 50.9073 34.1015 50.8927C34.2333 50.8781 34.3663 50.9064 34.4808 50.9734C35.0924 51.2912 35.7301 51.5562 36.3868 51.7653C36.5148 51.7986 36.6287 51.8725 36.7114 51.9758C36.794 52.0791 36.8411 52.2063 36.8455 52.3386V53.199C36.8455 53.3527 36.899 53.5016 36.9967 53.6202C37.0944 53.7389 37.2303 53.8198 37.3812 53.8492C39.1492 54.2003 40.9689 54.2003 42.7369 53.8492C42.8877 53.8198 43.0236 53.7389 43.1214 53.6202C43.2191 53.5016 43.2725 53.3527 43.2725 53.199V52.3385C43.277 52.2063 43.324 52.079 43.4067 51.9757C43.4894 51.8724 43.6032 51.7986 43.7313 51.7653C44.388 51.5561 45.0256 51.2912 45.6373 50.9734C45.7517 50.9064 45.8847 50.8781 46.0165 50.8926C46.1483 50.9072 46.2719 50.9639 46.369 51.0543L46.981 51.6663C47.0897 51.7749 47.2328 51.8424 47.3857 51.8572C47.5387 51.8721 47.692 51.8333 47.8195 51.7475C49.3152 50.7424 50.6013 49.4562 51.6062 47.9605C51.6921 47.833 51.731 47.6796 51.7162 47.5266C51.7015 47.3735 51.634 47.2304 51.5254 47.1217L50.9133 46.5103C50.8226 46.4133 50.7657 46.2895 50.7513 46.1574C50.7368 46.0254 50.7655 45.8922 50.8331 45.7779C51.1504 45.1664 51.4151 44.529 51.6243 43.8726ZM50.3614 43.4711C50.1753 44.0554 49.9398 44.6228 49.6575 45.1671C49.4601 45.5314 49.3846 45.9494 49.442 46.3597C49.4994 46.7701 49.6867 47.1512 49.9764 47.4474L50.1945 47.6648C49.4438 48.6844 48.5434 49.5848 47.5238 50.3355L47.3057 50.1174C47.0098 49.8276 46.6289 49.6402 46.2187 49.5827C45.8085 49.5252 45.3907 49.6006 45.0265 49.7978C44.4821 50.0805 43.9146 50.3162 43.3301 50.5024C42.9341 50.6213 42.5865 50.8635 42.3378 51.1938C42.0891 51.524 41.9523 51.9251 41.9475 52.3385V52.6419C40.6959 52.8354 39.4221 52.8354 38.1705 52.6419V52.3385C38.1656 51.9251 38.0289 51.524 37.7802 51.1938C37.5315 50.8635 37.1839 50.6213 36.7879 50.5024C36.2034 50.3162 35.6359 50.0805 35.0915 49.7978C34.7273 49.6007 34.3095 49.5254 33.8994 49.5829C33.4892 49.6404 33.1082 49.8277 32.8123 50.1174L32.5942 50.3351C31.5747 49.5845 30.6743 48.6842 29.9235 47.6648L30.1416 47.4471C30.4311 47.1509 30.6184 46.77 30.676 46.3598C30.7336 45.9497 30.6586 45.5319 30.4618 45.1675C30.1785 44.6232 29.9426 44.0555 29.7566 43.4708C29.6377 43.0748 29.3954 42.7272 29.0652 42.4785C28.7349 42.2298 28.3339 42.0931 27.9205 42.0882H27.6171C27.423 40.8369 27.423 39.5631 27.6171 38.3118H27.9205C28.3339 38.3069 28.735 38.1702 29.0653 37.9214C29.3955 37.6727 29.6378 37.3249 29.7566 36.9289C29.9427 36.3442 30.1786 35.7766 30.4618 35.2323C30.6585 34.8678 30.7336 34.45 30.676 34.0399C30.6183 33.6298 30.4311 33.2488 30.1416 32.9527L29.9235 32.7353C30.6743 31.7158 31.5747 30.8155 32.5942 30.0649L32.8123 30.2826C33.1084 30.5721 33.4893 30.7592 33.8994 30.8168C34.3095 30.8743 34.7272 30.7991 35.0915 30.6022C35.6359 30.3195 36.2034 30.0838 36.7879 29.8977C37.1839 29.7788 37.5315 29.5366 37.7802 29.2063C38.0289 28.876 38.1656 28.475 38.1705 28.0615V27.7581C39.4221 27.5647 40.6959 27.5647 41.9475 27.7581V28.0615C41.9523 28.475 42.0891 28.876 42.3378 29.2063C42.5865 29.5366 42.9341 29.7788 43.3301 29.8977C43.9146 30.0838 44.4821 30.3195 45.0265 30.6022C45.3907 30.7992 45.8085 30.8745 46.2186 30.817C46.6287 30.7594 47.0097 30.5722 47.3057 30.2826L47.5238 30.0649C48.5433 30.8155 49.4437 31.7158 50.1945 32.7353L49.9764 32.953C49.6867 33.249 49.4994 33.6299 49.4419 34.0401C49.3844 34.4502 49.4597 34.868 49.6568 35.2323C49.9395 35.7767 50.1752 36.3444 50.3614 36.9289V36.9293C50.4803 37.3252 50.7225 37.6728 51.0528 37.9215C51.3831 38.1702 51.7841 38.307 52.1975 38.3118H52.5009C52.695 39.5632 52.695 40.8369 52.5009 42.0882H52.1975C51.7841 42.0931 51.383 42.2299 51.0527 42.4786C50.7225 42.7274 50.4802 43.0751 50.3614 43.4711V43.4711Z" fill="white"/>
<path d="M57.4253 26.2876C57.4253 25.6324 57.231 24.992 56.867 24.4473C56.5031 23.9025 55.9857 23.478 55.3804 23.2272C54.7752 22.9765 54.1091 22.9109 53.4666 23.0387C52.824 23.1666 52.2338 23.482 51.7705 23.9453C51.3072 24.4086 50.9918 24.9988 50.8639 25.6414C50.7361 26.2839 50.8017 26.95 51.0524 27.5552C51.3032 28.1605 51.7277 28.6779 52.2725 29.0418C52.8172 29.4058 53.4576 29.6001 54.1128 29.6001C54.991 29.5991 55.833 29.2497 56.4539 28.6288C57.0749 28.0078 57.4243 27.1658 57.4253 26.2876ZM52.1253 26.2876C52.1253 25.8945 52.2419 25.5102 52.4602 25.1834C52.6786 24.8566 52.989 24.6018 53.3522 24.4514C53.7154 24.301 54.115 24.2616 54.5005 24.3383C54.8861 24.415 55.2402 24.6043 55.5182 24.8822C55.7961 25.1602 55.9854 25.5143 56.0621 25.8999C56.1388 26.2854 56.0994 26.685 55.949 27.0482C55.7986 27.4114 55.5438 27.7218 55.217 27.9401C54.8901 28.1585 54.5059 28.2751 54.1128 28.2751C53.5859 28.2745 53.0807 28.0649 52.7081 27.6923C52.3355 27.3197 52.1259 26.8145 52.1253 26.2876Z" fill="white"/>
<path d="M29.6001 54.1126C29.6001 53.4574 29.4058 52.817 29.0418 52.2722C28.6779 51.7275 28.1605 51.3029 27.5552 51.0522C26.95 50.8015 26.2839 50.7359 25.6414 50.8637C24.9988 50.9915 24.4086 51.307 23.9453 51.7703C23.482 52.2335 23.1666 52.8238 23.0387 53.4663C22.9109 54.1089 22.9765 54.7749 23.2272 55.3802C23.478 55.9855 23.9025 56.5028 24.4473 56.8668C24.992 57.2308 25.6324 57.4251 26.2876 57.4251C27.1658 57.424 28.0078 57.0747 28.6288 56.4537C29.2497 55.8327 29.5991 54.9908 29.6001 54.1126ZM24.3001 54.1126C24.3001 53.7195 24.4167 53.3352 24.6351 53.0084C24.8534 52.6815 25.1638 52.4268 25.527 52.2763C25.8902 52.1259 26.2898 52.0866 26.6753 52.1632C27.0609 52.2399 27.415 52.4292 27.693 52.7072C27.9709 52.9851 28.1602 53.3393 28.2369 53.7248C28.3136 54.1103 28.2742 54.51 28.1238 54.8731C27.9734 55.2363 27.7186 55.5467 27.3918 55.7651C27.065 55.9835 26.6807 56.1001 26.2876 56.1001C25.7607 56.0995 25.2555 55.8899 24.8829 55.5173C24.5103 55.1447 24.3007 54.6395 24.3001 54.1126Z" fill="white"/>
<path d="M23.5574 49.8056C21.4448 46.1423 20.5994 41.8845 21.1525 37.6919C21.7055 33.4994 23.6259 29.6064 26.6162 26.6162C29.6064 23.6259 33.4995 21.7055 37.692 21.1526C41.8846 20.5996 46.1424 21.445 49.8057 23.5577L50.4695 22.4106C46.5536 20.1517 42.0018 19.2477 37.5198 19.8386C33.0378 20.4296 28.876 22.4825 25.6793 25.6792C22.4827 28.8759 20.4298 33.0378 19.8389 37.5198C19.248 42.0018 20.152 46.5535 22.411 50.4695L23.5574 49.8056Z" fill="white"/>
<path d="M56.8431 30.5945C58.9549 34.2565 59.8004 38.5126 59.2485 42.7037C58.6967 46.8949 56.7783 50.7871 53.7906 53.7776C50.8028 56.7682 46.9123 58.6901 42.7217 59.2458C38.5311 59.8015 34.2742 58.96 30.6103 56.8516L29.9478 57.9993C33.8644 60.2536 38.4152 61.1536 42.8951 60.5596C47.375 59.9657 51.5341 57.9111 54.7281 54.7141C57.922 51.5171 59.9726 47.356 60.5623 42.8755C61.1519 38.3951 60.2476 33.8452 57.9895 29.9307L56.8431 30.5945Z" fill="white"/>
</svg>
