<svg width="80" height="80" viewBox="0 0 80 80" fill="none" xmlns="http://www.w3.org/2000/svg">
<circle cx="40" cy="40" r="40" fill="#007AFF"/>
<path d="M40.2001 21.3187C28.8714 21.3187 19.6626 30.5275 19.6626 41.8562V45.5529C19.6626 49.1305 22.2066 52.1117 25.5721 52.8139C26.9368 56.524 30.5143 59.0812 34.5688 59.0812H40.2001C41.2999 59.0812 42.1876 58.1934 42.1876 57.0937C42.1876 56.0072 41.2999 55.1062 40.2001 55.1062H34.5688C32.8066 55.1062 31.2166 54.2847 30.1698 52.973H30.6999C31.7996 52.973 32.6874 52.0852 32.6874 50.9855V40.1205C32.6874 39.0207 31.7996 38.133 30.6999 38.133H27.0826C25.9563 38.133 24.8831 38.398 23.9291 38.8484C25.3468 31.1502 32.0911 25.2937 40.2001 25.2937C48.3091 25.2937 55.0534 31.1502 56.4711 38.8484C55.5171 38.398 54.4439 38.133 53.3176 38.133H49.7003C48.6006 38.133 47.7128 39.0207 47.7128 40.1205V50.9855C47.7128 52.0852 48.6006 52.973 49.7003 52.973H53.3176C57.4118 52.973 60.7376 49.6472 60.7376 45.5529V41.8562C60.7376 30.5275 51.5288 21.3187 40.2001 21.3187Z" fill="white"/>
</svg>
