<svg width="31" height="30" viewBox="0 0 31 30" fill="none" xmlns="http://www.w3.org/2000/svg">
<path d="M14.0074 15.5784L16.0779 13.5077C16.1186 13.4671 16.1508 13.4189 16.1728 13.3658C16.1948 13.3127 16.2062 13.2559 16.2062 13.1984C16.2062 13.141 16.1948 13.0841 16.1728 13.031C16.1508 12.978 16.1186 12.9297 16.0779 12.8892L14.9749 11.7862C15.2016 11.3707 15.3834 10.9322 15.5172 10.4782H17.0762C17.1922 10.4782 17.3035 10.4321 17.3855 10.35C17.4676 10.268 17.5137 10.1567 17.5137 10.0407V7.11266C17.5137 6.99663 17.4676 6.88535 17.3855 6.8033C17.3035 6.72125 17.1922 6.67516 17.0762 6.67516H15.5207C15.3868 6.2205 15.2044 5.78155 14.9767 5.36591L16.0779 4.26441C16.1186 4.2238 16.1508 4.17557 16.1728 4.12249C16.1948 4.0694 16.2062 4.0125 16.2062 3.95503C16.2062 3.89757 16.1948 3.84067 16.1728 3.78758C16.1508 3.7345 16.1186 3.68627 16.0779 3.64566L14.0074 1.57491C13.9668 1.53426 13.9186 1.50201 13.8656 1.48C13.8125 1.458 13.7556 1.44667 13.6982 1.44667C13.6407 1.44667 13.5838 1.458 13.5308 1.48C13.4777 1.50201 13.4295 1.53426 13.3889 1.57491L12.2874 2.67666C11.8718 2.4489 11.4328 2.26651 10.9782 2.13266V0.57666C10.9782 0.519198 10.9669 0.462292 10.9449 0.409197C10.9229 0.356102 10.8907 0.30786 10.8501 0.267228C10.8095 0.226596 10.7612 0.194371 10.7081 0.172396C10.655 0.150421 10.5981 0.139127 10.5407 0.13916H7.61241C7.55495 0.139127 7.49804 0.150421 7.44495 0.172396C7.39185 0.194371 7.34361 0.226596 7.30298 0.267228C7.26235 0.30786 7.23012 0.356102 7.20815 0.409197C7.18617 0.462292 7.17488 0.519198 7.17491 0.57666V2.13541C6.72097 2.26932 6.28259 2.45117 5.86716 2.67791L4.76441 1.57491C4.7238 1.53425 4.67557 1.50199 4.62249 1.47999C4.5694 1.45798 4.5125 1.44665 4.45503 1.44665C4.39757 1.44665 4.34067 1.45798 4.28758 1.47999C4.2345 1.50199 4.18627 1.53425 4.14566 1.57491L2.07491 3.64566C2.03425 3.68627 2.00199 3.7345 1.97999 3.78758C1.95798 3.84067 1.94665 3.89757 1.94665 3.95503C1.94665 4.0125 1.95798 4.0694 1.97999 4.12249C2.00199 4.17557 2.03425 4.2238 2.07491 4.26441L3.17741 5.36716C2.95069 5.78268 2.76883 6.22115 2.63491 6.67516H1.07666C1.0192 6.67513 0.962292 6.68642 0.909197 6.7084C0.856102 6.73037 0.80786 6.7626 0.767228 6.80323C0.726596 6.84386 0.694371 6.8921 0.672396 6.9452C0.650421 6.99829 0.639127 7.0552 0.63916 7.11266V10.0407C0.639127 10.0981 0.650421 10.155 0.672396 10.2081C0.694371 10.2612 0.726596 10.3095 0.767228 10.3501C0.80786 10.3907 0.856102 10.4229 0.909197 10.4449C0.962292 10.4669 1.0192 10.4782 1.07666 10.4782H2.63241C2.76633 10.9328 2.9488 11.3718 3.17666 11.7874L2.07491 12.8892C2.03426 12.9297 2.00201 12.978 1.98 13.031C1.958 13.0841 1.94667 13.141 1.94667 13.1984C1.94667 13.2559 1.958 13.3127 1.98 13.3658C2.00201 13.4189 2.03426 13.4671 2.07491 13.5077L4.14516 15.5784C4.22727 15.6603 4.33854 15.7064 4.45454 15.7064C4.57053 15.7064 4.6818 15.6603 4.76391 15.5784L5.86541 14.4767C6.28117 14.7044 6.72019 14.8869 7.17491 15.0209V16.5769C7.17491 16.6929 7.221 16.8042 7.30305 16.8863C7.3851 16.9683 7.49638 17.0144 7.61241 17.0144H10.5407C10.6567 17.0144 10.768 16.9683 10.85 16.8863C10.9321 16.8042 10.9782 16.6929 10.9782 16.5769V15.0179C11.4321 14.884 11.8705 14.7021 12.2859 14.4754L13.3889 15.5784C13.4709 15.6604 13.5822 15.7064 13.6982 15.7064C13.8141 15.7064 13.9254 15.6604 14.0074 15.5784ZM12.6672 13.6192C12.5977 13.5495 12.5067 13.5054 12.4091 13.4939C12.3114 13.4824 12.2127 13.5041 12.1289 13.5557C11.6062 13.877 11.0358 14.1133 10.4389 14.2557C10.3434 14.2786 10.2584 14.333 10.1975 14.41C10.1366 14.4871 10.1034 14.5824 10.1032 14.6807V16.1382H8.04991V14.6847C8.04977 14.5863 8.01652 14.4909 7.95551 14.4138C7.89451 14.3367 7.80931 14.2824 7.71366 14.2597C7.11688 14.1169 6.54676 13.8797 6.02491 13.5569C5.94105 13.5052 5.8422 13.4833 5.74434 13.4947C5.64648 13.5061 5.55534 13.5503 5.48566 13.6199L4.45491 14.6499L3.00341 13.1979L4.03341 12.1677C4.103 12.098 4.14708 12.0069 4.15851 11.9091C4.16994 11.8113 4.14806 11.7125 4.09641 11.6287C3.77366 11.1065 3.53657 10.536 3.39416 9.93891C3.37141 9.84326 3.3171 9.75806 3.23999 9.69706C3.16289 9.63605 3.06748 9.6028 2.96916 9.60266H1.51416V7.54991H2.97141C3.06965 7.54975 3.16498 7.51655 3.24207 7.45566C3.31916 7.39476 3.37352 7.3097 3.39641 7.21416C3.5386 6.61741 3.77489 6.04711 4.09641 5.52466C4.14785 5.44077 4.16956 5.34201 4.15804 5.24428C4.14652 5.14655 4.10244 5.05554 4.03291 4.98591L3.00341 3.95491L4.45491 2.50341L5.48591 3.53441C5.55548 3.60396 5.64645 3.64805 5.74414 3.65957C5.84184 3.6711 5.94057 3.64937 6.02441 3.59791C6.54702 3.27654 7.11739 3.04026 7.71416 2.89791C7.80968 2.87498 7.89471 2.82061 7.9556 2.74353C8.01649 2.66645 8.04971 2.57114 8.04991 2.47291V1.01416H10.1032V2.46891C10.1033 2.56723 10.1366 2.66264 10.1976 2.73974C10.2586 2.81685 10.3438 2.87116 10.4394 2.89391C11.0365 3.03627 11.607 3.27327 12.1292 3.59591C12.2129 3.64778 12.3118 3.66979 12.4096 3.65835C12.5075 3.64691 12.5986 3.6027 12.6682 3.53291L13.6982 2.50291L15.1499 3.95491L14.1199 4.98516C14.0503 5.05489 14.0063 5.14602 13.9949 5.24385C13.9834 5.34169 14.0053 5.44052 14.0569 5.52441C14.3797 6.04646 14.6167 6.61686 14.7589 7.21391C14.7817 7.30956 14.836 7.39476 14.9131 7.45576C14.9902 7.51677 15.0856 7.55002 15.1839 7.55016H16.6387V9.60316H15.1812C15.0829 9.60337 14.9876 9.63663 14.9105 9.69757C14.8334 9.75851 14.779 9.8436 14.7562 9.93916C14.6138 10.5359 14.3776 11.1063 14.0562 11.6289C14.0046 11.7127 13.9829 11.8114 13.9944 11.9091C14.0059 12.0067 14.05 12.0977 14.1197 12.1672L15.1499 13.1984L13.6982 14.6499L12.6672 13.6192Z" fill="white"/>
<path d="M9.07656 4.78931C8.32751 4.78931 7.59529 5.01142 6.97248 5.42757C6.34967 5.84372 5.86424 6.43521 5.5776 7.12724C5.29095 7.81927 5.21595 8.58076 5.36208 9.31541C5.50821 10.0501 5.86891 10.7249 6.39857 11.2545C6.92822 11.7842 7.60305 12.1449 8.3377 12.291C9.07236 12.4372 9.83385 12.3622 10.5259 12.0755C11.2179 11.7889 11.8094 11.3035 12.2255 10.6806C12.6417 10.0578 12.8638 9.3256 12.8638 8.57656C12.8627 7.57246 12.4633 6.60981 11.7533 5.89981C11.0433 5.18981 10.0807 4.79043 9.07656 4.78931ZM9.07656 11.4893C8.50059 11.4893 7.93756 11.3185 7.45865 10.9985C6.97974 10.6786 6.60647 10.2238 6.38604 9.69164C6.1656 9.15953 6.1079 8.574 6.22023 8.00909C6.33256 7.44418 6.60987 6.92527 7.01711 6.51796C7.42435 6.11066 7.94321 5.83325 8.5081 5.72083C9.07299 5.6084 9.65853 5.666 10.1907 5.88634C10.7228 6.10669 11.1777 6.47988 11.4978 6.95873C11.8178 7.43758 11.9887 8.00059 11.9888 8.57656C11.9879 9.34865 11.6808 10.0889 11.1348 10.6348C10.5889 11.1808 9.84865 11.4879 9.07656 11.4888V11.4893Z" fill="white"/>
<path d="M29.9231 19.5216H28.3671C28.2333 19.0669 28.0509 18.628 27.8231 18.2124L28.9246 17.1106C28.9652 17.07 28.9975 17.0218 29.0195 16.9687C29.0415 16.9157 29.0528 16.8588 29.0528 16.8014C29.0528 16.7439 29.0415 16.687 29.0195 16.634C28.9975 16.5809 28.9652 16.5327 28.9246 16.4921L26.8541 14.4219C26.8135 14.3812 26.7653 14.3489 26.7122 14.3269C26.6591 14.3049 26.6022 14.2936 26.5447 14.2936C26.4873 14.2936 26.4304 14.3049 26.3773 14.3269C26.3242 14.3489 26.276 14.3812 26.2353 14.4219L25.1338 15.5231C24.7182 15.2954 24.2794 15.1129 23.8248 14.9789V13.4229C23.8248 13.3068 23.7788 13.1955 23.6967 13.1135C23.6147 13.0314 23.5034 12.9854 23.3873 12.9854H20.4591C20.3431 12.9854 20.2318 13.0314 20.1497 13.1135C20.0677 13.1955 20.0216 13.3068 20.0216 13.4229V14.9819C19.5676 15.1157 19.1291 15.2976 18.7136 15.5244L17.6108 14.4219C17.5703 14.3812 17.5221 14.3489 17.469 14.3269C17.4159 14.3049 17.359 14.2936 17.3016 14.2936C17.2441 14.2936 17.1873 14.3049 17.1342 14.3269C17.0811 14.3489 17.0329 14.3812 16.9923 14.4219L14.9216 16.4921C14.8396 16.5741 14.7936 16.6854 14.7936 16.8014C14.7936 16.9173 14.8396 17.0286 14.9216 17.1106L16.0248 18.2136C15.798 18.629 15.6162 19.0675 15.4826 19.5216H13.9231C13.8071 19.5216 13.6958 19.5677 13.6137 19.6497C13.5317 19.7318 13.4856 19.8431 13.4856 19.9591V22.8871C13.4856 23.0031 13.5317 23.1144 13.6137 23.1965C13.6958 23.2785 13.8071 23.3246 13.9231 23.3246H15.4791C15.6129 23.7793 15.7953 24.2182 16.0231 24.6339L14.9216 25.7354C14.8396 25.8174 14.7935 25.9287 14.7935 26.0447C14.7935 26.1607 14.8396 26.272 14.9216 26.3541L16.9923 28.4249C17.0329 28.4655 17.0811 28.4978 17.1342 28.5198C17.1873 28.5418 17.2441 28.5531 17.3016 28.5531C17.359 28.5531 17.4159 28.5418 17.469 28.5198C17.5221 28.4978 17.5703 28.4655 17.6108 28.4249L18.7123 27.3249C19.128 27.5527 19.5669 27.735 20.0216 27.8689V29.4249C20.0216 29.4823 20.0329 29.5392 20.0548 29.5923C20.0768 29.6454 20.109 29.6937 20.1497 29.7343C20.1903 29.7749 20.2385 29.8071 20.2916 29.8291C20.3447 29.8511 20.4016 29.8624 20.4591 29.8624H23.3871C23.4446 29.8624 23.5015 29.8511 23.5546 29.8291C23.6077 29.8071 23.6559 29.7749 23.6965 29.7343C23.7372 29.6937 23.7694 29.6454 23.7914 29.5923C23.8133 29.5392 23.8246 29.4823 23.8246 29.4249V27.8661C24.2786 27.7322 24.7171 27.5502 25.1326 27.3234L26.2353 28.4261C26.276 28.4668 26.3242 28.499 26.3773 28.521C26.4304 28.543 26.4873 28.5544 26.5447 28.5544C26.6022 28.5544 26.6591 28.543 26.7122 28.521C26.7653 28.499 26.8135 28.4668 26.8541 28.4261L28.9246 26.3559C28.9653 26.3152 28.9975 26.267 29.0195 26.2139C29.0415 26.1608 29.0529 26.1039 29.0529 26.0465C29.0529 25.989 29.0415 25.9321 29.0195 25.879C28.9975 25.8259 28.9653 25.7777 28.9246 25.7371L27.8218 24.6341C28.0486 24.2187 28.2304 23.7803 28.3643 23.3264H29.9231C29.9806 23.3264 30.0375 23.3151 30.0906 23.2931C30.1437 23.2711 30.1919 23.2389 30.2325 23.1983C30.2732 23.1577 30.3054 23.1094 30.3274 23.0563C30.3493 23.0032 30.3606 22.9463 30.3606 22.8889V19.9591C30.3606 19.9016 30.3493 19.8447 30.3274 19.7916C30.3054 19.7385 30.2732 19.6903 30.2325 19.6497C30.1919 19.609 30.1437 19.5768 30.0906 19.5548C30.0375 19.5329 29.9806 19.5216 29.9231 19.5216ZM29.4856 22.4499H28.0283C27.9301 22.45 27.8348 22.4832 27.7577 22.5441C27.6806 22.605 27.6262 22.6901 27.6033 22.7856C27.461 23.3824 27.2247 23.9527 26.9033 24.4754C26.8519 24.5592 26.8302 24.6579 26.8417 24.7556C26.8533 24.8533 26.8973 24.9443 26.9668 25.0139L27.9981 26.0451L26.5463 27.4966L25.5153 26.4656C25.4457 26.3962 25.3548 26.3522 25.2571 26.3406C25.1594 26.3291 25.0607 26.3508 24.9768 26.4021C24.4541 26.7234 23.8837 26.9597 23.2868 27.1021C23.1913 27.125 23.1062 27.1794 23.0454 27.2564C22.9845 27.3335 22.9513 27.4289 22.9511 27.5271V28.9844H20.8966V27.5296C20.8965 27.4313 20.8632 27.3359 20.8022 27.2588C20.7412 27.1817 20.656 27.1274 20.5603 27.1046C19.9633 26.9622 19.3928 26.7252 18.8706 26.4026C18.7868 26.3508 18.688 26.3288 18.5901 26.3402C18.4923 26.3517 18.4012 26.3958 18.3316 26.4656L17.3016 27.4956L15.8498 26.0449L16.8798 25.0146C16.9495 24.9449 16.9937 24.8538 17.0051 24.7559C17.0165 24.6581 16.9946 24.5592 16.9428 24.4754C16.6203 23.9532 16.3834 23.3829 16.2411 22.7859C16.2183 22.6902 16.164 22.605 16.0869 22.544C16.0098 22.483 15.9144 22.4497 15.8161 22.4496H14.3606V20.3966H15.8178C15.9161 20.3964 16.0114 20.3631 16.0885 20.3022C16.1656 20.2413 16.22 20.1562 16.2428 20.0606C16.3852 19.4638 16.6214 18.8934 16.9428 18.3709C16.9944 18.2871 17.0161 18.1884 17.0046 18.0907C16.9931 17.993 16.949 17.9021 16.8793 17.8326L15.8498 16.8014L17.3016 15.3499L18.3326 16.3809C18.402 16.4505 18.493 16.4947 18.5907 16.5063C18.6884 16.5178 18.7871 16.496 18.8708 16.4444C19.3935 16.123 19.964 15.8867 20.5608 15.7444C20.6564 15.7214 20.7414 15.667 20.8023 15.59C20.8632 15.5129 20.8964 15.4176 20.8966 15.3194V13.8619H22.9498V15.3166C22.95 15.4149 22.9832 15.5103 23.0442 15.5874C23.1052 15.6645 23.1904 15.7188 23.2861 15.7416C23.8831 15.8841 24.4535 16.1212 24.9756 16.4439C25.0594 16.4957 25.1583 16.5177 25.2562 16.5063C25.3541 16.4948 25.4452 16.4506 25.5148 16.3809L26.5448 15.3499L27.9966 16.8016L26.9663 17.8319C26.8967 17.9015 26.8526 17.9926 26.8412 18.0904C26.8297 18.1882 26.8516 18.287 26.9033 18.3709C27.226 18.8929 27.4629 19.4633 27.6051 20.0604C27.6278 20.156 27.6821 20.2413 27.7592 20.3024C27.8363 20.3634 27.9317 20.3967 28.0301 20.3969H29.4848L29.4856 22.4499Z" fill="white"/>
<path d="M21.9232 17.636C21.1742 17.636 20.442 17.8581 19.8192 18.2743C19.1963 18.6904 18.7109 19.2819 18.4243 19.9739C18.1376 20.6659 18.0626 21.4274 18.2088 22.1621C18.3549 22.8967 18.7156 23.5716 19.2452 24.1012C19.7749 24.6309 20.4497 24.9916 21.1844 25.1377C21.919 25.2838 22.6805 25.2088 23.3726 24.9222C24.0646 24.6356 24.6561 24.1501 25.0722 23.5273C25.4884 22.9045 25.7105 22.1723 25.7105 21.4232C25.7094 20.4191 25.31 19.4565 24.6 18.7465C23.89 18.0365 22.9273 17.6371 21.9232 17.636ZM21.9232 24.336C21.3472 24.336 20.7842 24.1652 20.3053 23.8452C19.8264 23.5252 19.4531 23.0704 19.2327 22.5382C19.0122 22.0061 18.9546 21.4205 19.0669 20.8556C19.1793 20.2907 19.4567 19.7718 19.864 19.3645C20.2713 18.9572 20.7902 18.6798 21.3551 18.5674C21.92 18.4551 22.5056 18.5127 23.0377 18.7332C23.5699 18.9536 24.0247 19.3269 24.3447 19.8058C24.6647 20.2847 24.8355 20.8477 24.8355 21.4237C24.8345 22.1958 24.5273 22.9359 23.9814 23.4817C23.4354 24.0276 22.6953 24.3346 21.9232 24.3355V24.336Z" fill="white"/>
<path d="M18.6777 4.2142C21.2196 4.96252 23.4149 6.58596 24.8749 8.7972C24.5248 9.11418 24.3033 9.54882 24.2528 10.0184C24.2023 10.488 24.3262 10.9598 24.6009 11.344C24.8757 11.7282 25.282 11.998 25.7428 12.1021C26.2035 12.2061 26.6864 12.1371 27.0995 11.9083C27.5127 11.6794 27.8273 11.3066 27.9835 10.8609C28.1397 10.4151 28.1265 9.9275 27.9465 9.49081C27.7666 9.05413 27.4323 8.69885 27.0074 8.49259C26.5825 8.28633 26.0966 8.24348 25.6422 8.3722C24.0693 5.96003 21.6874 4.18809 18.9249 3.37495C18.8695 3.35748 18.8111 3.35124 18.7532 3.3566C18.6953 3.36195 18.639 3.3788 18.5877 3.40615C18.5364 3.4335 18.491 3.47081 18.4543 3.51589C18.4175 3.56098 18.3902 3.61293 18.3738 3.66871C18.3573 3.7245 18.3522 3.783 18.3587 3.84079C18.3651 3.89858 18.383 3.95451 18.4113 4.0053C18.4397 4.05609 18.4778 4.10072 18.5236 4.13659C18.5694 4.17246 18.6218 4.19885 18.6779 4.2142H18.6777ZM27.1999 10.2185C27.1999 10.4247 27.1387 10.6264 27.0241 10.7979C26.9095 10.9694 26.7466 11.1031 26.5561 11.1821C26.3655 11.261 26.1558 11.2817 25.9534 11.2414C25.7511 11.2012 25.5653 11.1018 25.4194 10.956C25.2735 10.8101 25.1742 10.6243 25.134 10.4219C25.0937 10.2196 25.1144 10.0099 25.1933 9.81931C25.2723 9.62873 25.4059 9.46584 25.5775 9.35123C25.749 9.23663 25.9506 9.17545 26.1569 9.17545C26.4335 9.17572 26.6986 9.28569 26.8941 9.48123C27.0897 9.67678 27.1997 9.94192 27.1999 10.2185Z" fill="white"/>
<path d="M12.322 25.7857C9.78057 25.0371 7.58579 23.4137 6.12604 21.2027C6.47621 20.8858 6.69761 20.4511 6.74814 19.9815C6.79866 19.5119 6.67476 19.0401 6.40003 18.6559C6.1253 18.2717 5.71891 18.0019 5.25819 17.8979C4.79747 17.7938 4.31458 17.8628 3.90141 18.0917C3.48825 18.3205 3.17364 18.6933 3.01746 19.1391C2.86128 19.5848 2.87444 20.0724 3.05441 20.5091C3.23439 20.9458 3.56864 21.3011 3.99354 21.5073C4.41845 21.7136 4.90435 21.7564 5.35879 21.6277C6.93135 24.0397 9.31271 25.8116 12.0748 26.625C12.115 26.6368 12.1567 26.6428 12.1985 26.6427C12.3036 26.6425 12.4051 26.6045 12.4844 26.5356C12.5638 26.4667 12.6157 26.3715 12.6306 26.2675C12.6456 26.1635 12.6226 26.0576 12.5659 25.9691C12.5092 25.8807 12.4225 25.8156 12.3218 25.7857H12.322ZM3.79979 19.7815C3.79989 19.5752 3.86115 19.3736 3.97581 19.2022C4.09048 19.0307 4.25341 18.8971 4.444 18.8182C4.63459 18.7394 4.84429 18.7188 5.04658 18.7591C5.24887 18.7994 5.43467 18.8988 5.58048 19.0446C5.7263 19.1905 5.82558 19.3764 5.86579 19.5787C5.90599 19.781 5.88531 19.9907 5.80635 20.1812C5.72739 20.3718 5.59371 20.5346 5.4222 20.6492C5.25069 20.7638 5.04906 20.825 4.84279 20.825C4.56617 20.8247 4.30095 20.7147 4.1054 20.519C3.90984 20.3234 3.79992 20.0581 3.79979 19.7815Z" fill="white"/>
</svg>
