<svg width="21" height="19" viewBox="0 0 21 19" fill="none" xmlns="http://www.w3.org/2000/svg">
<path d="M9.67923 0.817135C10.0146 0.0205896 11.1568 0.0205906 11.4921 0.817137L13.4714 5.51849C13.6129 5.8543 13.9326 6.08374 14.2995 6.1128L19.4371 6.5197C20.3075 6.58865 20.6605 7.66181 19.9973 8.22304L16.083 11.5355C15.8035 11.7721 15.6813 12.1434 15.7667 12.4971L16.9626 17.45C17.1652 18.2891 16.2412 18.9524 15.4959 18.5028L11.0974 15.8486C10.7832 15.659 10.3881 15.659 10.074 15.8486L5.67543 18.5028C4.93019 18.9524 4.00613 18.2891 4.20874 17.45L5.40464 12.4971C5.49006 12.1434 5.36795 11.7721 5.08838 11.5355L1.17404 8.22304C0.510841 7.66181 0.863802 6.58865 1.73426 6.5197L6.87189 6.1128C7.23886 6.08374 7.55852 5.8543 7.6999 5.51849L9.67923 0.817135Z" fill="#FBAF5B"/>
</svg>
