<svg width="114" height="19" viewBox="0 0 114 19" fill="none" xmlns="http://www.w3.org/2000/svg">
<path d="M9.67923 0.817135C10.0146 0.0205896 11.1568 0.0205906 11.4921 0.817137L13.4714 5.51849C13.6129 5.8543 13.9326 6.08374 14.2995 6.1128L19.4371 6.5197C20.3075 6.58865 20.6605 7.66181 19.9973 8.22304L16.083 11.5355C15.8035 11.7721 15.6813 12.1434 15.7667 12.4971L16.9626 17.45C17.1652 18.2891 16.2412 18.9524 15.4959 18.5028L11.0974 15.8486C10.7832 15.659 10.3881 15.659 10.074 15.8486L5.67543 18.5028C4.93019 18.9524 4.00613 18.2891 4.20874 17.45L5.40464 12.4971C5.49006 12.1434 5.36795 11.7721 5.08838 11.5355L1.17404 8.22304C0.510841 7.66181 0.863802 6.58865 1.73426 6.5197L6.87189 6.1128C7.23886 6.08374 7.55852 5.8543 7.6999 5.51849L9.67923 0.817135Z" fill="#FBAF5B"/>
<path d="M33.0938 0.817135C33.4291 0.0205896 34.5713 0.0205906 34.9067 0.817137L36.886 5.51849C37.0274 5.8543 37.3471 6.08374 37.7141 6.1128L42.8516 6.5197C43.7221 6.58865 44.075 7.66181 43.4118 8.22304L39.4976 11.5355C39.218 11.7721 39.0958 12.1434 39.1813 12.4971L40.3771 17.45C40.5797 18.2891 39.6557 18.9524 38.9105 18.5028L34.512 15.8486C34.1978 15.659 33.8027 15.659 33.4885 15.8486L29.09 18.5028C28.3447 18.9524 27.4207 18.2891 27.6233 17.45L28.8192 12.4971C28.9046 12.1434 28.7825 11.7721 28.5029 11.5355L24.5886 8.22304C23.9254 7.66181 24.2784 6.58865 25.1488 6.5197L30.2864 6.1128C30.6534 6.08374 30.9731 5.8543 31.1144 5.51849L33.0938 0.817135Z" fill="#FBAF5B"/>
<path d="M56.5083 0.817135C56.8437 0.0205896 57.9859 0.0205906 58.3212 0.817137L60.3005 5.51849C60.442 5.8543 60.7617 6.08374 61.1286 6.1128L66.2662 6.5197C67.1366 6.58865 67.4896 7.66181 66.8264 8.22304L62.9121 11.5355C62.6326 11.7721 62.5104 12.1434 62.5958 12.4971L63.7917 17.45C63.9943 18.2891 63.0703 18.9524 62.325 18.5028L57.9265 15.8486C57.6123 15.659 57.2172 15.659 56.9031 15.8486L52.5045 18.5028C51.7593 18.9524 50.8352 18.2891 51.0378 17.45L52.2337 12.4971C52.3192 12.1434 52.1971 11.7721 51.9175 11.5355L48.0031 8.22304C47.3399 7.66181 47.6929 6.58865 48.5634 6.5197L53.701 6.1128C54.068 6.08374 54.3876 5.8543 54.529 5.51849L56.5083 0.817135Z" fill="#FBAF5B"/>
<path d="M79.9229 0.817135C80.2582 0.0205896 81.4004 0.0205906 81.7358 0.817137L83.7151 5.51849C83.8565 5.8543 84.1762 6.08374 84.5432 6.1128L89.6807 6.5197C90.5512 6.58865 90.9041 7.66181 90.2409 8.22304L86.3267 11.5355C86.0471 11.7721 85.9249 12.1434 86.0104 12.4971L87.2062 17.45C87.4088 18.2891 86.4848 18.9524 85.7396 18.5028L81.3411 15.8486C81.0269 15.659 80.6318 15.659 80.3176 15.8486L75.9191 18.5028C75.1738 18.9524 74.2498 18.2891 74.4524 17.45L75.6483 12.4971C75.7337 12.1434 75.6116 11.7721 75.332 11.5355L71.4177 8.22304C70.7545 7.66181 71.1075 6.58865 71.9779 6.5197L77.1155 6.1128C77.4825 6.08374 77.8022 5.8543 77.9436 5.51849L79.9229 0.817135Z" fill="#FBAF5B"/>
<path d="M103.337 0.817135C103.673 0.0205896 104.815 0.0205906 105.15 0.817137L107.13 5.51849C107.271 5.8543 107.591 6.08374 107.958 6.1128L113.095 6.5197C113.966 6.58865 114.319 7.66181 113.655 8.22304L109.741 11.5355C109.462 11.7721 109.339 12.1434 109.425 12.4971L110.621 17.45C110.823 18.2891 109.899 18.9524 109.154 18.5028L104.756 15.8486C104.441 15.659 104.046 15.659 103.732 15.8486L99.3336 18.5028C98.5884 18.9524 97.6643 18.2891 97.8669 17.45L99.0628 12.4971C99.1483 12.1434 99.0262 11.7721 98.7466 11.5355L94.8322 8.22304C94.169 7.66181 94.522 6.58865 95.3925 6.5197L100.53 6.1128C100.897 6.08374 101.217 5.8543 101.358 5.51849L103.337 0.817135Z" fill="#FBAF5B"/>
</svg>
