<svg width="16" height="16" viewBox="0 0 16 16" fill="none" xmlns="http://www.w3.org/2000/svg">
<path fill-rule="evenodd" clip-rule="evenodd" d="M7.89421 0.0380859C3.57538 0.0380859 0.10083 3.50483 0.10083 7.81396C0.10083 11.2483 2.34143 14.1643 5.42631 15.201C5.81598 15.2658 5.94587 15.039 5.94587 14.8123C5.94587 14.6179 5.94587 14.1319 5.94587 13.4839C3.77021 13.9699 3.3156 12.4471 3.3156 12.4471C2.9584 11.5399 2.43884 11.3131 2.43884 11.3131C1.72445 10.8271 2.50379 10.8271 2.50379 10.8271C3.28313 10.8919 3.70527 11.6371 3.70527 11.6371C4.38719 12.8359 5.52373 12.4795 5.97834 12.2851C6.04328 11.7667 6.23812 11.4427 6.46543 11.2483C4.74439 11.0539 2.92593 10.3735 2.92593 7.39277C2.92593 6.55038 3.21818 5.83759 3.73774 5.3192C3.6728 5.1248 3.38054 4.34722 3.80269 3.24563C3.80269 3.24563 4.45214 3.05124 5.94587 4.05562C6.56284 3.89362 7.24476 3.79643 7.89421 3.79643C8.54366 3.79643 9.22558 3.89362 9.84256 4.05562C11.3363 3.05124 11.9857 3.24563 11.9857 3.24563C12.4079 4.31482 12.1481 5.0924 12.0507 5.3192C12.5378 5.86999 12.8625 6.55038 12.8625 7.39277C12.8625 10.3735 11.044 11.0215 9.29053 11.2159C9.58278 11.4427 9.81009 11.9287 9.81009 12.6415C9.81009 13.6783 9.81009 14.5207 9.81009 14.7799C9.81009 14.9742 9.93997 15.2334 10.3621 15.1686C13.447 14.1643 15.6876 11.2483 15.6876 7.81396C15.6876 3.50483 12.213 0.0380859 7.89421 0.0380859Z" fill="white"/>
</svg>
