<svg width="18" height="17" viewBox="0 0 18 17" fill="none" xmlns="http://www.w3.org/2000/svg">
<path d="M9.05481 1.50286C11.2301 1.50286 11.4878 1.51099 12.3471 1.55009C12.8638 1.55639 13.3756 1.65106 13.8602 1.82996C14.2116 1.96519 14.5308 2.17234 14.7971 2.43809C15.0635 2.70383 15.2711 3.02228 15.4066 3.37292C15.5859 3.85645 15.6808 4.36708 15.6871 4.8826C15.7259 5.74002 15.7345 5.99705 15.7345 8.1675C15.7345 10.338 15.7263 10.595 15.6871 11.4524C15.6808 11.9679 15.5859 12.4786 15.4066 12.9621C15.2711 13.3127 15.0635 13.6312 14.7971 13.8969C14.5308 14.1627 14.2116 14.3698 13.8602 14.5051C13.3756 14.684 12.8638 14.7786 12.3471 14.7849C11.4881 14.8236 11.2305 14.8321 9.05481 14.8321C6.87908 14.8321 6.62147 14.824 5.76251 14.7849C5.24582 14.7786 4.73405 14.684 4.24943 14.5051C3.89799 14.3698 3.57883 14.1627 3.31249 13.8969C3.04614 13.6312 2.83852 13.3127 2.70299 12.9621C2.52368 12.4786 2.42881 11.9679 2.42249 11.4524C2.38369 10.595 2.37515 10.338 2.37515 8.1675C2.37515 5.99705 2.3833 5.74002 2.42249 4.8826C2.42881 4.36708 2.52368 3.85645 2.70299 3.37292C2.83852 3.02228 3.04614 2.70383 3.31249 2.43809C3.57883 2.17234 3.89799 1.96519 4.24943 1.82996C4.73405 1.65106 5.24582 1.55639 5.76251 1.55009C6.62186 1.51138 6.87947 1.50286 9.05481 1.50286V1.50286ZM9.05481 0.0380859C6.84339 0.0380859 6.56482 0.0473762 5.69578 0.0868601C5.01957 0.10028 4.35053 0.228027 3.71714 0.464667C3.17379 0.668924 2.68165 0.989014 2.27506 1.4026C1.86017 1.80842 1.53908 2.29974 1.33424 2.84221C1.09706 3.47419 0.969029 4.14172 0.955579 4.81641C0.916782 5.68273 0.907471 5.96067 0.907471 8.16712C0.907471 10.3736 0.916782 10.6515 0.956355 11.5186C0.969805 12.1933 1.09784 12.8608 1.33501 13.4928C1.53963 14.0352 1.86045 14.5265 2.27506 14.9324C2.68187 15.3461 3.17428 15.6662 3.71791 15.8703C4.35131 16.107 5.02034 16.2347 5.69655 16.2481C6.5656 16.2869 6.843 16.2969 9.05558 16.2969C11.2682 16.2969 11.5456 16.2876 12.4146 16.2481C13.0908 16.2347 13.7599 16.107 14.3932 15.8703C14.9343 15.6611 15.4256 15.3415 15.8358 14.932C16.246 14.5224 16.566 14.032 16.7754 13.492C17.0125 12.86 17.1406 12.1925 17.154 11.5178C17.1928 10.6515 17.2021 10.3736 17.2021 8.16712C17.2021 5.96067 17.1928 5.68273 17.1533 4.81563C17.1398 4.14094 17.0118 3.47341 16.7746 2.84144C16.57 2.29903 16.2492 1.80773 15.8346 1.40183C15.4277 0.988146 14.9353 0.66805 14.3917 0.463892C13.7583 0.227252 13.0893 0.0995058 12.4131 0.086086C11.5448 0.0473763 11.2662 0.0380859 9.05481 0.0380859Z" fill="white"/>
<path d="M9.05641 3.99414C8.22892 3.99414 7.42002 4.23897 6.73199 4.69766C6.04396 5.15636 5.5077 5.80832 5.19104 6.5711C4.87437 7.33388 4.79152 8.17322 4.95295 8.98299C5.11439 9.79275 5.51286 10.5366 6.09798 11.1204C6.6831 11.7042 7.4286 12.1018 8.24018 12.2628C9.05177 12.4239 9.893 12.3412 10.6575 12.0253C11.422 11.7093 12.0754 11.1743 12.5352 10.4878C12.9949 9.80131 13.2403 8.99422 13.2403 8.16859C13.2403 7.06146 12.7995 5.99967 12.0148 5.21681C11.2302 4.43395 10.166 3.99414 9.05641 3.99414ZM9.05641 10.8783C8.51928 10.8783 7.99421 10.7193 7.54761 10.4216C7.101 10.1239 6.75291 9.70067 6.54736 9.20554C6.34181 8.71041 6.28803 8.16559 6.39282 7.63996C6.4976 7.11433 6.75626 6.63152 7.13607 6.25256C7.51587 5.87361 7.99978 5.61553 8.52659 5.51098C9.0534 5.40643 9.59945 5.46009 10.0957 5.66518C10.5919 5.87027 11.0161 6.21757 11.3145 6.66318C11.6129 7.10878 11.7722 7.63267 11.7722 8.16859C11.7722 8.88724 11.4861 9.57646 10.9768 10.0846C10.4674 10.5928 9.77668 10.8783 9.05641 10.8783Z" fill="white"/>
<path d="M13.4049 4.80351C13.9449 4.80351 14.3826 4.36677 14.3826 3.82802C14.3826 3.28928 13.9449 2.85254 13.4049 2.85254C12.865 2.85254 12.4272 3.28928 12.4272 3.82802C12.4272 4.36677 12.865 4.80351 13.4049 4.80351Z" fill="white"/>
</svg>
