<svg width="15" height="12" viewBox="0 0 15 12" fill="none" xmlns="http://www.w3.org/2000/svg">
<path d="M14.3032 1.54515C13.7992 1.76863 13.2672 1.90831 12.7073 1.99211C13.2672 1.65689 13.7152 1.12613 13.9112 0.48363C13.3792 0.790913 12.7913 1.01439 12.1473 1.15407C11.6434 0.623304 10.9154 0.288086 10.1315 0.288086C8.61962 0.288086 7.38772 1.51722 7.38772 3.0257C7.38772 3.24918 7.41572 3.44472 7.47172 3.64026C5.2039 3.52852 3.16007 2.43907 1.78818 0.762978C1.5642 1.182 1.42421 1.62896 1.42421 2.13178C1.42421 3.08157 1.90017 3.91961 2.65611 4.42244C2.20815 4.3945 1.78818 4.28277 1.39621 4.08722V4.11516C1.39621 5.45603 2.34814 6.57342 3.60803 6.82483C3.38405 6.8807 3.13207 6.90864 2.88009 6.90864C2.71211 6.90864 2.51612 6.8807 2.34814 6.85277C2.71211 7.94223 3.72002 8.75234 4.92393 8.75234C3.972 9.47864 2.7961 9.9256 1.50821 9.9256C1.28422 9.9256 1.06024 9.9256 0.864258 9.89766C2.09616 10.6798 3.52404 11.1268 5.09191 11.1268C10.1595 11.1268 12.9313 6.93657 12.9313 3.30505C12.9313 3.19331 12.9313 3.05363 12.9313 2.94189C13.4632 2.57874 13.9392 2.10385 14.3032 1.54515Z" fill="white"/>
</svg>
